<svg xmlns="http://www.w3.org/2000/svg" xmlns:xlink="http://www.w3.org/1999/xlink" version="1.1" id="Layer_1" x="0px" y="0px" width="100px" height="100px" viewBox="0 0 100 100" enable-background="new 0 0 100 100" xml:space="preserve">
<path fill="none" d="M21.442,65.553c-2.366,0-4.292,1.926-4.292,4.293c0,2.366,1.926,4.293,4.292,4.293  c2.367,0,4.292-1.927,4.292-4.293C25.734,67.479,23.809,65.553,21.442,65.553z"/>
<circle fill="none" cx="35.131" cy="45.11" r="14.722"/>
<path d="M59.343,23.318H3.98c-1.374,0-2.488,1.276-2.488,2.85v39.657c0,1.575,1.114,2.85,2.488,2.85h8.172  c-0.048,0.384-0.075,0.774-0.075,1.171c0,5.163,4.201,9.366,9.365,9.366s9.365-4.203,9.365-9.366c0-0.396-0.027-0.787-0.075-1.171  h28.611c1.375,0,2.488-1.274,2.488-2.85V26.168C61.831,24.594,60.718,23.318,59.343,23.318z M21.442,74.139  c-2.366,0-4.292-1.927-4.292-4.293c0-2.367,1.926-4.293,4.292-4.293c2.367,0,4.292,1.926,4.292,4.293  C25.734,72.212,23.809,74.139,21.442,74.139z M35.131,59.832c-8.13,0-14.722-6.591-14.722-14.722  c0-8.131,6.592-14.722,14.722-14.722c8.131,0,14.723,6.591,14.723,14.722C49.854,53.241,43.262,59.832,35.131,59.832z"/>
<path d="M38.008,47.981v5.542h-5.452v-5.542h-5.302v-5.152h5.302v-5.542h5.452v5.542h5.302v5.152H38.008z"/>
<polygon points="73.441,28.676 73.441,32.384 78.417,32.384 78.417,30.53 "/>
<path d="M72.709,32.773h-5.756v-2.515l5.756-2.145V32.773z M67.733,31.993h4.195v-2.755l-4.195,1.563V31.993z"/>
<path fill="none" d="M81.539,42.919l-0.782-4.292c-0.112-1.562-1.048-2.342-2.34-2.342H68.66c-1.293,0-2.34,1.048-2.34,2.342v4.292  c0,1.293,1.047,2.341,2.34,2.341h10.535C80.489,45.261,81.539,44.213,81.539,42.919z"/>
<path fill="none" d="M82.123,64.578c-2.366,0-4.293,1.926-4.293,4.291c0,2.367,1.927,4.294,4.293,4.294  c2.367,0,4.293-1.927,4.293-4.294C86.416,66.504,84.49,64.578,82.123,64.578z"/>
<path d="M98.779,54.909c0-2.042-1.049-3.697-2.342-3.697l-12.36-5.358l-1.369-7.969c-0.4-1.789-1.023-3.014-3.173-3.247  l-15.559-0.89c-0.348,0-0.678,0.107-0.975,0.294v31.782c0,0.753-0.231,1.444-0.614,1.995c0.418,0.528,0.975,0.854,1.589,0.854h8.787  c-0.001,0.065-0.007,0.129-0.007,0.194c0,5.165,4.203,9.367,9.366,9.367c5.164,0,9.366-4.202,9.366-9.367  c0-0.065-0.004-0.129-0.004-0.194h5.077c1.293,0,2.341-1.654,2.341-3.697L98.779,54.909z M66.32,42.919v-4.292  c0-1.293,1.047-2.342,2.34-2.342h9.757c1.292,0,2.228,0.78,2.34,2.342l0.782,4.292c0,1.293-1.05,2.341-2.344,2.341H68.66  C67.367,45.261,66.32,44.213,66.32,42.919z M82.123,73.163c-2.366,0-4.293-1.927-4.293-4.294c0-2.365,1.927-4.291,4.293-4.291  c2.367,0,4.293,1.926,4.293,4.291C86.416,71.236,84.49,73.163,82.123,73.163z"/>
</svg>
