<svg fill="#000000" xmlns="http://www.w3.org/2000/svg" data-name="Layer 1" viewBox="0 0 100 100" x="0px" y="0px"><title>big4_outline</title><path d="M30.78,29.64a5.1,5.1,0,0,0,4.13-.29l3.68-2a1.08,1.08,0,0,1,.84-0.08l21.38,6.56a1.1,1.1,0,0,1,.7,1.45l-0.22.56a1.1,1.1,0,0,1-1.29.66l-10.7-2.72a5.08,5.08,0,0,0-5.59,2.25l-2.77,4.46a1.1,1.1,0,0,1-.85.51l-11.61.83a2,2,0,0,0,.14,4h0.14L40.37,45a5.11,5.11,0,0,0,4-2.39l2.77-4.46a1.1,1.1,0,0,1,1.2-.48L59,40.42a5.11,5.11,0,0,0,6-3.07l0.22-.56A5.1,5.1,0,0,0,62,30L40.6,23.49a5.07,5.07,0,0,0-3.89.37l-3.68,2a1.1,1.1,0,0,1-.89.06l-1.56-.57a2,2,0,0,0-1.34-1.65L16.55,19.42A2,2,0,0,0,14,20.69L4.22,50a2,2,0,0,0,1.26,2.53l12.69,4.24a2,2,0,0,0,.63.1,2,2,0,0,0,1.9-1.37l8.8-26.35ZM17.55,52.36l-8.9-3,8.53-25.54,8.9,3Zm78.12-4.12L81.85,20.57a2,2,0,0,0-2.68-.9l-12,6a2,2,0,0,0-.9,2.68l12.88,25.8A49,49,0,0,1,66.33,64.32L44.56,75.58c-0.27.14-.53,0.29-0.8,0.45a4.63,4.63,0,0,1-1.3.61,4.55,4.55,0,0,1-1.59-.06,2.17,2.17,0,0,1-1.74-1.19L39,74.88a39.62,39.62,0,0,0,4.57-2.36c0.61-.35,1.21-0.69,1.79-1l6.78-3.64a2,2,0,1,0-1.89-3.52L43.49,68c-0.62.33-1.25,0.69-1.89,1.06-2.8,1.61-5.7,3.26-8.58,2.9A1.43,1.43,0,0,1,31.71,71a5.09,5.09,0,0,1-.08-1.36c0-.06,0-0.12,0-0.18l17.41-8a2,2,0,0,0-1.66-3.64L29.48,66.05a1.1,1.1,0,0,1-1.13-.13l-1-.75A1.11,1.11,0,0,1,27,64a2,2,0,0,0,.08-0.58A5.38,5.38,0,0,0,28.27,63l15.46-6.72a2,2,0,1,0-1.6-3.67L26.67,59.38a1.29,1.29,0,0,1-1.25-2.24L37,51.91a2,2,0,0,0-1.64-3.65L23.65,53.55l-0.2.11a5.3,5.3,0,0,0-.19,9c0,0.06-.06.12-0.08,0.18a5.12,5.12,0,0,0,1.76,5.53l1,0.75a5.08,5.08,0,0,0,1.72.85,7.42,7.42,0,0,0,.23,2.13,5.32,5.32,0,0,0,4.66,3.84,10.69,10.69,0,0,0,1.37.09,11.13,11.13,0,0,0,1.28-.08l0.07,0.3c0.46,2.12,2.26,3.71,4.82,4.26a8.69,8.69,0,0,0,1.82.19A8.22,8.22,0,0,0,43,80.6a7.55,7.55,0,0,0,2.75-1.12l0.62-.35L68.14,67.89A52.27,52.27,0,0,0,81.89,57.11h0a2,2,0,0,0,.89-0.21l12-6A2,2,0,0,0,95.67,48.24ZM82.8,52.43l-12-24.09,8.39-4.19,12,24.09Z"/></svg>