<svg fill="#000000" xmlns="http://www.w3.org/2000/svg" xmlns:xlink="http://www.w3.org/1999/xlink" version="1.1" x="0px" y="0px" viewBox="0 0 30 30" xml:space="preserve"><g transform="translate(-150 -260)"><g xmlns="http://www.w3.org/2000/svg" xmlns:xlink="http://www.w3.org/1999/xlink"><path d="M171,274c-0.414,0-0.8,0.128-1.12,0.346c-0.274-0.779-1.01-1.346-1.88-1.346c-0.365,0-0.704,0.106-1,0.279V264    c0-1.1-0.9-2-2-2s-2,0.9-2,2v9.754l-2.06-8.239c-0.267-1.067-1.358-1.722-2.425-1.455s-1.722,1.358-1.455,2.425l1.769,7.077    L156.4,276.8c-0.648,0.864-0.493,2.087,0.351,2.762l4.055,3.244L162,284v4h1v-4.414l-1.527-1.527l-4.098-3.278    c-0.424-0.339-0.501-0.946-0.175-1.381l1.941-2.588l0.625,2.501l-0.384,0.513l0.674,0.539c0.181,0.464,0.521,0.829,0.945,1.047    v-1.401c-0.018-0.044-0.048-0.079-0.06-0.126l-2.91-11.642c-0.134-0.535,0.193-1.079,0.728-1.213    c0.535-0.134,1.079,0.193,1.213,0.728L162.531,276H164v-12c0-0.551,0.449-1,1-1s1,0.449,1,1v11v1h1v-1c0-0.551,0.449-1,1-1    s1,0.449,1,1v1h1c0-0.551,0.449-1,1-1s1,0.449,1,1v1v4.838l-1,3V288h1v-3l1-3v-5v-1C173,274.9,172.1,274,171,274z"/></g></g></svg>