<svg xmlns="http://www.w3.org/2000/svg" xmlns:xlink="http://www.w3.org/1999/xlink" version="1.1" x="0px" y="0px" width="100.456px" height="49.118px" viewBox="0 0 100.456 49.118" enable-background="new 0 0 100.456 49.118" xml:space="preserve">
<g id="Your_Icon">
</g>
<g id="Layer_1">
	<path d="M83.338,38.345l-0.427,0.28c-0.001,0.001-0.652,0.432-1.834,1.112c-3.533,2.048-11.695,6.178-19.216,6.534   c-0.259,0.012-0.528,0.018-0.799,0.02c-2.689,0.003-6.068-0.617-8.728-1.248c-2.665-0.63-4.603-1.254-4.607-1.254l-0.28-0.09   l-0.29,0.029c-0.021,0.002-4.433,0.428-6.661,0.808c-1.809,0.319-10.734,0.656-15.433,0.648c-0.087,0.002-0.16,0.002-0.221,0.002   c-1.314-0.006-1.944-0.329-2.235-0.589c-0.29-0.26-0.371-0.529-0.376-0.829c-0.002-0.146,0.03-0.288,0.062-0.37   c0.445-0.164,1.748-0.544,3.294-0.942c5.309-1.381,14.345-3.43,14.358-3.436l0.536-0.121c0.831,1.746,1.555,2.279,1.688,2.367   l0.635-0.988l0.144-0.19c0,0-0.001-0.001-0.004-0.003c-0.113-0.084-2.086-1.751-3.179-9.41c-0.214-1.49-0.304-2.953-0.304-4.361   c0-3.81,0.658-7.232,1.316-9.698c0.66-2.463,1.309-3.938,1.305-3.941l-1.293-0.566h-0.002c-0.005,0.015-0.238,0.554-0.561,1.484   l-0.566-0.063c-0.012-0.002-5.7-0.645-11.896-1.433c-6.161-0.777-12.974-1.743-14.709-2.256c-1.529-0.527-1.466-0.882-1.531-1.313   c-0.053-0.54,0.566-1.518,0.949-1.729l0.01-0.003c0.203-0.117,1.174-0.414,2.431-0.664c3.832-0.792,10.773-1.659,16.322-2.164   c5.439-0.5,15.618-1.139,24.844-1.137c3.716-0.002,7.283,0.103,10.306,0.359c5.12,0.424,11.08,2.309,15.706,4.1   c4.635,1.788,7.92,3.456,7.929,3.456l0.293,0.148l8.776,0.084l0.027-2.826h-0.001L90.99,8.074   c-2.051-1.002-14.163-6.822-24.373-7.703C63.478,0.107,59.847,0.002,56.075,0c-9.354,0.002-19.571,0.643-25.101,1.15   C27.1,1.504,22.596,2.024,18.847,2.583c-1.875,0.28-3.557,0.571-4.896,0.86c-1.369,0.321-2.257,0.509-3.068,1.013   C9.719,5.295,8.744,6.7,8.693,8.525c-0.067,1.7,1.294,3.459,3.574,4.03c2.271,0.642,8.878,1.542,15.136,2.345   c2.966,0.377,5.815,0.722,7.986,0.979c-8.21-0.254-27.456-0.853-29.274-0.955c-0.095-0.005-0.202-0.009-0.326-0.009   c-3.336,0.037-5.76,2.719-5.788,5.634c-0.054,2.454,1.988,4.799,5.51,5.331c0.842,0.145,1.916,0.283,3.159,0.417   c-0.309,0.255-0.589,0.552-0.849,0.864c-0.729,0.93-1.263,2.14-1.271,3.52c-0.03,1.589,0.866,3.338,2.693,4.41   c1.267,0.732,3.021,1.057,5.321,1.389c5.657,0.764,14.218,0.953,19.51,0.996c-1.095,0.258-2.28,0.539-3.477,0.826   c-2.214,0.531-4.461,1.085-6.232,1.552c-0.888,0.234-1.653,0.448-2.251,0.63c-0.635,0.213-0.933,0.262-1.458,0.58   c-0.937,0.699-1.219,1.649-1.254,2.705c-0.008,0.974,0.382,2.116,1.335,2.951c0.951,0.836,2.334,1.292,4.101,1.294   c0.087,0,0.162-0.002,0.226-0.002c4.889-0.007,13.541-0.3,15.907-0.688c1.716-0.295,5.183-0.652,6.183-0.754   c1.496,0.459,8.425,2.531,13.908,2.549c0.317,0,0.63-0.011,0.934-0.024c9.919-0.529,19.84-6.469,22.028-7.83l16.12,1.78l0.312-2.81   L83.338,38.345z M5.996,23.095c-2.699-0.555-3.113-1.591-3.167-2.545c-0.006-0.629,0.298-1.361,0.841-1.908   c0.542-0.548,1.272-0.9,2.119-0.9c0.038,0,0.095,0.002,0.168,0.006c2.351,0.129,30.558,0.994,32.859,1.065   c-0.371,1.855-0.667,4-0.746,6.326l-0.11-0.004c-0.014,0-6.261-0.208-13.403-0.568C17.43,24.208,9.356,23.681,5.996,23.095z    M22.53,34.327c-2.76-0.146-5.433-0.357-7.585-0.65c-2.13-0.268-3.833-0.722-4.236-1.002c-1.114-0.715-1.3-1.32-1.331-1.994   c-0.006-0.59,0.27-1.279,0.661-1.767c0.191-0.241,0.402-0.429,0.566-0.53c0.081-0.051,0.148-0.081,0.189-0.096   c0.025-0.01,0.025-0.002,0.025-0.01c0.056-0.002,0.069-0.002,0.144-0.002c2.797,0,26.91,0.326,26.936,0.326l0.225,0.002   c0.051,0.747,0.128,1.504,0.237,2.271c0.208,1.453,0.449,2.694,0.706,3.777l-0.297,0.002c-0.001,0-0.711,0.006-1.915,0.006   C33.919,34.661,28.05,34.618,22.53,34.327z M70.105,28.385c2.229,0.649,4.247,0.914,6.044,0.914   c6.946-0.005,10.424-3.923,10.56-4.089c0.51-0.59,0.444-1.48-0.146-1.991c-0.591-0.513-1.482-0.446-1.991,0.144   c-0.002,0-0.009,0.01-0.083,0.082c-0.531,0.527-3.249,3.025-8.34,3.025c-1.521,0-3.265-0.22-5.25-0.799   c-2.346-0.669-4.824-2.73-6.62-4.669c-0.901-0.966-1.646-1.892-2.156-2.569c-0.512-0.676-0.778-1.086-0.78-1.086   c-0.232-0.351-0.603-0.579-1.018-0.627c-0.009,0-5.138-0.602-10.519-1.25c-3.224-0.458-3.903-1.836-3.938-2.917   c-0.002-0.545,0.21-1.108,0.618-1.562c0.125-0.165,0.368-0.343,0.698-0.524c0.319,0.535,0.792,1.333,1.111,1.882   c0.506,0.807,1.363,0.902,2.013,0.911c0.933-0.003,1.778-0.261,1.813-0.269l-0.399-1.354c-0.002,0.001-0.75,0.213-1.414,0.209   c-0.506,0.008-0.79-0.147-0.79-0.209c-0.293-0.502-0.708-1.201-1.02-1.729c0.848-0.295,1.91-0.572,3.153-0.792   c2.773-0.525,6.368-0.927,10.331-1.454c0.648-0.088,1.357-0.133,2.107-0.133c3.728-0.003,8.43,1.038,12.222,2.099   c1.899,0.529,3.576,1.058,4.821,1.459c0.626,0.201,1.14,0.368,1.531,0.491c0.197,0.061,0.361,0.109,0.51,0.151   c0.173,0.035,0.207,0.078,0.579,0.096l0.024,0.003c0.779,0,1.413-0.633,1.413-1.413c0-0.392-0.158-0.746-0.415-1.001   C84.763,9.4,84.75,9.389,84.738,9.377c-0.026-0.025-0.053-0.048-0.082-0.07c-0.053-0.056-0.133-0.122-0.297-0.183   c-0.13-0.059-0.271-0.099-0.419-0.116c-0.205-0.053-1.138-0.354-2.309-0.729C77.71,7.033,70.206,4.717,64.089,4.703   c-0.854,0-1.688,0.047-2.487,0.157C57.679,5.382,54.07,5.78,51.125,6.337c-2.942,0.593-5.247,1.181-6.748,2.768   c-0.852,0.953-1.338,2.177-1.338,3.448c-0.037,2.735,2.346,5.306,6.428,5.725c2.331,0.28,4.613,0.551,6.455,0.77   c-0.605,1.186-1.974,4.319-1.979,8.552c0,1.138,0.099,2.355,0.344,3.636c0.468,2.356,2.778,6.699,2.788,6.739l1.254-0.656   c-0.003-0.004-0.571-1.09-1.192-2.438c-0.62-1.343-1.288-2.979-1.46-3.911c-0.227-1.186-0.318-2.312-0.318-3.369   c0-2.498,0.52-4.598,1.039-6.065c0.519-1.47,1.023-2.267,1.017-2.271l-0.078-0.048c0.872,0.103,1.578,0.186,2.04,0.24   C60.639,21.228,64.778,26.737,70.105,28.385z"/>
</g>
</svg>
