<svg xmlns="http://www.w3.org/2000/svg" xmlns:xlink="http://www.w3.org/1999/xlink" version="1.1" x="0px" y="0px" viewBox="0 0 100 100" style="enable-background:new 0 0 100 100;" xml:space="preserve"><g><path d="M42.5,48.8c-0.8-0.7-1.7-1.3-2.9-1.8c-1-0.5-2.2-0.9-3.5-1.4l-3-1.1c-0.5-0.2-1-0.3-1.4-0.5c-0.4-0.2-0.8-0.4-1.1-0.6   c-0.3-0.2-0.5-0.4-0.6-0.7c-0.1-0.2-0.2-0.5-0.2-0.9c0-0.4,0.1-0.8,0.3-1c0.2-0.3,0.5-0.5,0.8-0.6c0.4-0.2,0.8-0.3,1.2-0.3   c1.5-0.2,2.8-0.1,4,0c0.7,0.1,1.3,0.2,1.9,0.3c0.5,0.1,1,0.2,1.5,0.4c0.5,0.2,1,0.3,1.5,0.5c0.5,0.2,1,0,1.2-0.5   c0.9-1.7,1.5-3.4,1.7-5.2c0.1-0.5-0.2-0.9-0.7-1.1c-1.4-0.4-2.7-0.7-3.9-1c-1-0.2-2-0.3-3-0.4v-3.4c0-0.5-0.3-0.9-0.8-1   c-1.7-0.4-3.3-0.4-4.7,0c-0.4,0.1-0.8,0.5-0.8,1v3.6c-2.7,0.4-5,1.3-6.6,2.8c-1.9,1.6-2.9,3.9-2.9,6.7c0,1.3,0.2,2.4,0.6,3.4   c0.4,0.9,1,1.8,1.7,2.5c0.7,0.7,1.6,1.2,2.5,1.7c0.9,0.4,1.9,0.9,3.1,1.3l2.6,1c0.6,0.2,1.2,0.4,1.8,0.7c0.5,0.2,1,0.4,1.4,0.6   c0.4,0.2,0.6,0.5,0.9,0.8c0.2,0.3,0.3,0.6,0.3,1.1c0,1-0.4,1.6-1.2,2c-1,0.5-2.4,0.8-4.3,0.8c-1.3,0-2.6-0.1-3.7-0.3   c-1.2-0.2-2.4-0.5-3.7-0.9c-0.5-0.2-1.1,0.1-1.3,0.6c-0.4,0.9-0.7,1.8-1,2.7c-0.3,0.9-0.5,1.8-0.6,2.6c-0.1,0.5,0.2,0.9,0.7,1.1   c0.9,0.3,1.7,0.5,2.4,0.7c0.8,0.2,1.6,0.4,2.4,0.5c0.8,0.1,1.7,0.2,2.5,0.3c0.7,0,1.5,0.1,2.4,0.1v3.5c0,0.5,0.3,0.9,0.8,1   c0.8,0.2,1.6,0.3,2.4,0.3c0.8,0,1.6-0.1,2.4-0.3c0.4-0.1,0.8-0.5,0.8-1v-4.1c2.7-0.6,4.9-1.8,6.4-3.3c1.7-1.8,2.6-4,2.6-6.5   c0-1.5-0.2-2.8-0.7-3.8C44,50.4,43.4,49.5,42.5,48.8z M41.1,60.4c-1.4,1.4-3.4,2.4-6.2,2.9c-0.5,0.1-0.8,0.5-0.8,1v4.1   c-0.7,0.1-1.5,0.1-2.3,0v-3.6c0-0.6-0.4-1-1-1h-0.4c-1.1,0-2,0-2.8-0.1c-0.8-0.1-1.6-0.1-2.3-0.3c-0.7-0.1-1.5-0.3-2.2-0.5   c-0.5-0.1-1-0.3-1.5-0.4c0.1-0.5,0.2-1,0.4-1.5c0.2-0.5,0.4-1.1,0.6-1.6c1.1,0.3,2.2,0.6,3.2,0.7c1.3,0.2,2.6,0.3,4,0.3   c2.3,0,4-0.3,5.3-1c1.5-0.8,2.2-2.1,2.2-3.8c0-0.9-0.2-1.6-0.7-2.2c-0.4-0.5-0.9-1-1.5-1.4c-0.5-0.3-1.1-0.6-1.8-0.8   c-0.6-0.2-1.1-0.4-1.7-0.6l-2.6-1c-1-0.4-2-0.8-2.9-1.2c-0.8-0.4-1.5-0.9-2-1.4c-0.5-0.5-1-1.1-1.2-1.8c-0.3-0.7-0.4-1.6-0.4-2.6   c0-2.2,0.7-3.9,2.2-5.2c1.5-1.3,3.7-2.1,6.4-2.4c0.5-0.1,0.9-0.5,0.9-1v-3.6c0.7-0.1,1.5-0.1,2.3,0v3.5c0,0.5,0.4,1,0.9,1   c1.3,0.1,2.5,0.2,3.7,0.5c0.9,0.2,1.9,0.4,2.9,0.7c-0.2,1-0.5,1.9-1,2.8c-0.2-0.1-0.5-0.2-0.7-0.2c-0.5-0.2-1.1-0.3-1.8-0.5   c-0.6-0.1-1.3-0.2-2-0.3c-1.2-0.1-2.8-0.2-4.4,0c-0.7,0.1-1.3,0.3-1.9,0.5c-0.6,0.3-1.1,0.7-1.5,1.3c-0.4,0.6-0.6,1.3-0.6,2.2   c0,0.7,0.2,1.4,0.5,1.9c0.3,0.5,0.7,1,1.2,1.3c0.5,0.3,1,0.6,1.5,0.8c0.5,0.2,1,0.4,1.5,0.6l3,1.1c1.2,0.4,2.3,0.9,3.3,1.3   c0.9,0.4,1.7,0.9,2.3,1.5c0.6,0.5,1.1,1.2,1.4,2c0.3,0.8,0.5,1.8,0.5,3C43.1,57.3,42.5,59,41.1,60.4z"></path><path d="M77.1,41.6H54.9c-1.9,0-3.5,1.6-3.5,3.5c0,1.9,1.6,3.5,3.5,3.5h22.2c1.9,0,3.5-1.6,3.5-3.5C80.6,43.2,79,41.6,77.1,41.6z    M77.1,46.5H54.9c-0.8,0-1.5-0.7-1.5-1.5s0.7-1.5,1.5-1.5h22.2c0.8,0,1.5,0.7,1.5,1.5S77.9,46.5,77.1,46.5z"></path><path d="M79.6,12H20.4c-3.3,0-5.9,2.7-5.9,5.9v64.1c0,1.3,0.4,2.5,1.2,3.5c0.2,0.3,0.5,0.4,0.9,0.4c0.3,0,0.6-0.2,0.8-0.5l3-6.1   l4,8.1c0.3,0.7,1.5,0.7,1.8,0l4-8.1l4,8.1c0.3,0.7,1.5,0.7,1.8,0l4-8.1l4,8.1c0.3,0.7,1.5,0.7,1.8,0l4-8.1l4,8.1   c0.3,0.7,1.4,0.7,1.8,0l4-8.1l4,8.1c0.3,0.7,1.4,0.7,1.8,0l4-8.1l4,8.1c0.2,0.3,0.5,0.6,0.9,0.6s0.7-0.2,0.9-0.6l4-8.1l3,6.1   c0.2,0.3,0.5,0.5,0.8,0.5c0.3,0,0.7-0.1,0.9-0.4c0.8-1,1.2-2.3,1.2-3.5V17.9C85.5,14.7,82.9,12,79.6,12z M83.5,82.1   c0,0.2,0,0.4,0,0.6l-3-6c-0.3-0.7-1.4-0.7-1.8,0l-4,8.1l-4-8.1c-0.3-0.7-1.4-0.7-1.8,0l-4,8.1l-4-8.1c-0.2-0.3-0.5-0.6-0.9-0.6   s-0.7,0.2-0.9,0.6l-4,8.1l-4-8.1c-0.3-0.7-1.5-0.7-1.8,0l-4,8.1l-4-8.1c-0.3-0.7-1.5-0.7-1.8,0l-4,8.1l-4-8.1   c-0.3-0.7-1.5-0.7-1.8,0l-4,8.1l-4-8.1c-0.3-0.7-1.5-0.7-1.8,0l-3,6c0-0.2,0-0.4,0-0.6V17.9c0-2.2,1.8-3.9,3.9-3.9h59.2   c2.2,0,3.9,1.8,3.9,3.9V82.1z"></path><path d="M77.1,66.3H62.3c-1.9,0-3.5,1.6-3.5,3.5s1.6,3.5,3.5,3.5h14.8c1.9,0,3.5-1.6,3.5-3.5S79,66.3,77.1,66.3z M77.1,71.2H62.3   c-0.8,0-1.5-0.7-1.5-1.5s0.7-1.5,1.5-1.5h14.8c0.8,0,1.5,0.7,1.5,1.5S77.9,71.2,77.1,71.2z"></path><path d="M77.1,29.3H54.9c-1.9,0-3.5,1.6-3.5,3.5s1.6,3.5,3.5,3.5h22.2c1.9,0,3.5-1.6,3.5-3.5S79,29.3,77.1,29.3z M77.1,34.2H54.9   c-0.8,0-1.5-0.7-1.5-1.5s0.7-1.5,1.5-1.5h22.2c0.8,0,1.5,0.7,1.5,1.5S77.9,34.2,77.1,34.2z"></path><path d="M77.1,53.9H54.9c-1.9,0-3.5,1.6-3.5,3.5s1.6,3.5,3.5,3.5h22.2c1.9,0,3.5-1.6,3.5-3.5S79,53.9,77.1,53.9z M77.1,58.9H54.9   c-0.8,0-1.5-0.7-1.5-1.5s0.7-1.5,1.5-1.5h22.2c0.8,0,1.5,0.7,1.5,1.5S77.9,58.9,77.1,58.9z"></path></g></svg>