<?xml version="1.0" encoding="utf-8"?>
<!-- Generator: Adobe Illustrator 15.1.0, SVG Export Plug-In . SVG Version: 6.00 Build 0)  -->
<!DOCTYPE svg PUBLIC "-//W3C//DTD SVG 1.1//EN" "http://www.w3.org/Graphics/SVG/1.1/DTD/svg11.dtd">
<svg version="1.1" id="Layer_1" xmlns="http://www.w3.org/2000/svg" xmlns:xlink="http://www.w3.org/1999/xlink" x="0px" y="0px"
	 width="46px" height="100px" viewBox="0 0 46 100" enable-background="new 0 0 46 100" xml:space="preserve">
<path d="M37.035,16.719c-1.274-2.255-2.782-4.924-3.518-6.585c0.501-0.387,0.93-0.896,1.255-1.504C35.374,7.502,35.5,6.306,35.5,5.5
	C35.5,2.313,33.607,0,31,0H15c-1.57,0-2.98,0.886-3.772,2.37C10.626,3.498,10.5,4.694,10.5,5.5c0,2.019,0.76,3.688,1.979,4.639
	c-0.735,1.662-2.241,4.327-3.515,6.58C4.971,23.788,0,32.585,0,39.5V88c0,6.393,6.075,12,13,12h20c6.925,0,13-5.607,13-12V39.5
	C46,32.585,41.029,23.788,37.035,16.719z M40,88c0,3.379-3.763,6-7,6H13c-3.237,0-7-2.621-7-6V39.5
	c0-5.336,4.732-13.713,8.188-19.829c3.825-6.77,5.745-10.167,4.197-12.818C18.197,6.529,17.968,6.244,17.703,6h10.594
	c-0.265,0.244-0.494,0.529-0.683,0.853c-1.548,2.651,0.372,6.049,4.197,12.818C35.268,25.787,40,34.164,40,39.5V88z"/>
</svg>
