<svg xmlns:x="http://ns.adobe.com/Extensibility/1.0/" xmlns:i="http://ns.adobe.com/AdobeIllustrator/10.0/" xmlns:graph="http://ns.adobe.com/Graphs/1.0/" xmlns="http://www.w3.org/2000/svg" xmlns:xlink="http://www.w3.org/1999/xlink" version="1.1" x="0px" y="0px" viewBox="0 0 64 64" enable-background="new 0 0 64 64" xml:space="preserve"><metadata><sfw xmlns="http://ns.adobe.com/SaveForWeb/1.0/"><slices></slices><sliceSourceBounds height="16384" width="16389" x="-8165" y="-8160" bottomLeftOrigin="true"></sliceSourceBounds></sfw></metadata><g><g><path d="M21,20v24c0,0.553,0.448,1,1,1h20c0.553,0,1-0.447,1-1V20c0-0.552-0.447-1-1-1H22C21.448,19,21,19.448,21,20z M23,43V33h1    c0.334,0,0.646-0.167,0.832-0.445l2.597-3.896l1.584,9.505c0.076,0.453,0.45,0.797,0.908,0.833C29.948,38.999,29.975,39,30,39    c0.427,0,0.812-0.273,0.948-0.684L32.721,33H36c0.379,0,0.725-0.214,0.895-0.553L38,30.236l1.105,2.211    C39.275,32.786,39.621,33,40,33h1v10H23z M41,21v10h-0.382l-1.724-3.447c-0.34-0.678-1.449-0.678-1.789,0L35.382,31H32    c-0.431,0-0.812,0.275-0.949,0.684l-0.727,2.181l-1.338-8.029c-0.067-0.405-0.375-0.727-0.776-0.813    c-0.405-0.089-0.814,0.082-1.042,0.423L23.465,31H23V21H41z"></path><path d="M48,27c-0.553,0-1,0.448-1,1V16c0-0.552-0.447-1-1-1h-7V6c0-0.552-0.447-1-1-1H26c-0.552,0-1,0.448-1,1v9h-7    c-0.552,0-1,0.448-1,1v32c0,0.553,0.448,1,1,1h7v9c0,0.553,0.448,1,1,1h12c0.553,0,1-0.447,1-1v-9h7c0.553,0,1-0.447,1-1V32    c0,0.552,0.447,1,1,1s1-0.448,1-1v-4C49,27.448,48.553,27,48,27z M27,7h10v8H27V7z M37,57H27v-8h10V57z M45,47H19V17h26V47z"></path></g></g></svg>