<svg fill="#000000" xmlns="http://www.w3.org/2000/svg" xmlns:xlink="http://www.w3.org/1999/xlink" version="1.1" x="0px" y="0px" viewBox="0 0 100 100" enable-background="new 0 0 100 100" xml:space="preserve"><g><path d="M50,9.5C27.672,9.5,9.5,27.668,9.5,50S27.672,90.5,50,90.5c22.332,0,40.5-18.168,40.5-40.5S72.332,9.5,50,9.5z M50,87.5   c-20.676,0-37.5-16.822-37.5-37.5S29.324,12.5,50,12.5c20.68,0,37.5,16.822,37.5,37.5S70.68,87.5,50,87.5z"/><path d="M35.502,79.797c16.682-12.051,28.324-0.648,28.811-0.164c0.58,0.59,1.535,0.594,2.121,0.016   c0.586-0.582,0.598-1.527,0.018-2.117c-0.094-0.094-6.252-6.195-15.938-6.195c-4.822,0-10.518,1.512-16.77,6.031   c-0.674,0.484-0.826,1.422-0.34,2.094S34.828,80.285,35.502,79.797z"/><g><path d="M22.1,48.234c0.072-0.086,7.279-8.711,14.564-9.268c0.797-0.08,1.449-0.785,1.381-1.611    c-0.061-0.826-0.785-1.445-1.607-1.379c-8.574,0.648-16.324,9.953-16.65,10.352c-0.527,0.641-0.438,1.586,0.201,2.109    c0.367,0.303,0.828,0.398,1.254,0.313C21.57,48.684,21.875,48.512,22.1,48.234z"/><path d="M77.9,48.234c-0.072-0.086-7.279-8.711-14.564-9.268c-0.797-0.08-1.447-0.785-1.381-1.611    c0.061-0.826,0.785-1.445,1.609-1.379c8.572,0.648,16.324,9.953,16.648,10.352c0.527,0.641,0.439,1.586-0.201,2.109    c-0.367,0.303-0.828,0.398-1.254,0.313C78.43,48.684,78.125,48.512,77.9,48.234z"/></g><g><path d="M46.166,53.123c0-0.826-0.674-1.5-1.5-1.5c-0.832,0-1.5,0.674-1.5,1.5c0,3.188-4.236,5.877-9.252,5.877    s-9.252-2.689-9.252-5.877c0-0.826-0.668-1.5-1.5-1.5c-0.826,0-1.5,0.674-1.5,1.5c0,4.98,5.385,8.877,12.252,8.877    S46.166,58.104,46.166,53.123z"/><path d="M76.84,51.623c-0.832,0-1.5,0.674-1.5,1.5c0,3.188-4.236,5.877-9.252,5.877s-9.252-2.689-9.252-5.877    c0-0.826-0.668-1.5-1.5-1.5c-0.826,0-1.5,0.674-1.5,1.5c0,4.98,5.385,8.877,12.252,8.877s12.252-3.896,12.252-8.877    C78.34,52.297,77.666,51.623,76.84,51.623z"/></g></g></svg>