<svg xmlns="http://www.w3.org/2000/svg" xmlns:xlink="http://www.w3.org/1999/xlink" version="1.1" x="0px" y="0px" viewBox="0 0 100 100" enable-background="new 0 0 100 100" xml:space="preserve"><path d="M90.801,64.162l-7.836-13.864c-0.136-0.238-0.389-0.386-0.662-0.386h-12.4c2.001-7.164,5.426-15.598,7.474-20.638  c1.606-3.958,1.952-4.849,1.952-5.296c-0.003-7.071-14.918-10.366-25-10.366c-4.794,0-9.056,0.658-12.32,1.905  c-3.456,1.321-5.581,2.562-5.49,4.665c0.003,0.089,0.019,0.163,0.033,0.217l0.305,4.257c-1.284-0.046-2.726-0.124-4.46-0.237  c-4.519-0.292-7.693-0.405-9.552-0.059c-1.442,0.271-4.076,1.408-4.792,3.955c-0.522,1.864,0.111,3.84,1.882,5.876  c1.18,1.352,3.468,7.918,5.808,15.679l-7.825,0.043c-0.3,0.002-0.571,0.181-0.692,0.456l-5.98,13.681  c-0.094,0.126-0.149,0.282-0.149,0.452v0.044c0,0.002,0,0.004,0,0.006v20.705c0,0.42,0.34,0.761,0.76,0.761h78.291  c0.419,0,0.759-0.341,0.759-0.761V64.551c0-0.009,0-0.018,0-0.027C90.901,64.393,90.864,64.269,90.801,64.162z M42.55,16.937  c3.094-1.181,7.167-1.806,11.778-1.806c11.081,0,23.425,3.618,23.479,8.813c-0.083,0.431-0.937,2.533-1.84,4.758  c-2.274,5.599-5.786,14.248-7.737,21.551c-0.078,0.12-0.125,0.264-0.125,0.417c0,0.019,0,0.035,0.002,0.052  c-0.95,3.657-1.487,6.948-1.25,9.307c-4.137,0.323-9.321,0.493-15.555,0.418c-2.988-0.036-5.896-0.122-8.652-0.255  c1.83-14.165,1.01-36.657,1.001-36.888c-0.004-0.113-0.033-0.219-0.081-0.314c-0.019-0.168-0.049-0.338-0.095-0.505  c-0.195-0.717-0.752-1.74-2.289-2.543c-0.991-0.517-1.844-0.855-2.473-1.069C39.333,18.353,40.476,17.729,42.55,16.937z   M68.785,54.581c6.181,0.199,9.771,2.044,10.232,2.716c-0.019,0.037-0.058,0.093-0.129,0.165c-0.96,0.947-4.46,1.87-10.519,2.437  C68.219,58.489,68.391,56.661,68.785,54.581z M40.485,21.291c0.832,0.433,1.358,0.985,1.526,1.594  c0.118,0.436,0.051,0.919-0.183,1.292c-0.363,0.583-2.066,0.704-3.442,0.583l-0.322-4.502  C38.635,20.445,39.482,20.767,40.485,21.291z M21.078,33.192c-1.413-1.625-1.939-3.128-1.564-4.468  c0.535-1.9,2.787-2.717,3.608-2.872c1.886-0.351,5.724-0.142,9.173,0.082c2.119,0.139,3.808,0.224,5.31,0.265  c0.666,0.099,3.094,0.385,4.599-0.405c0.156,6.224,0.401,23.02-1.076,34.317c-3.968-0.219-7.578-0.538-10.601-0.94  c-0.189-0.025-0.374-0.051-0.556-0.075c-0.299-1.092-0.81-2.93-1.448-5.144c-0.006-0.028-0.014-0.055-0.023-0.081  c-0.307-1.067-0.644-2.218-1.001-3.414c-0.007-0.035-0.018-0.069-0.03-0.102C25.396,43.405,22.664,35.008,21.078,33.192z   M28.327,58.846c-5.579-0.916-6.436-1.855-6.545-2.018c0.094-0.156,0.79-0.951,5.463-1.834  C27.612,56.275,27.974,57.564,28.327,58.846z M18.419,51.429l7.776-0.042c0.209,0.706,0.419,1.422,0.628,2.141  c-4.595,0.877-6.57,1.88-6.57,3.305c0,1.135,1.083,2.59,9.524,3.771c3.265,0.456,7.236,0.813,11.632,1.048  c0.078,0.043,0.167,0.074,0.261,0.087c0.142,0.02,0.28,0,0.402-0.052c2.92,0.146,6.018,0.241,9.212,0.28  c15.359,0.182,26.349-1.129,28.672-3.425c0.492-0.486,0.596-0.971,0.596-1.293c0-1.318-2.3-2.325-3.67-2.809  c-2.192-0.772-4.927-1.25-7.784-1.368c0.121-0.535,0.254-1.082,0.396-1.641h12.364l6.984,12.356H13.017L18.419,51.429z   M89.387,84.497H12.615V65.308h76.771V84.497z"></path></svg>